<svg width="167" height="32" viewBox="0 0 167 32" fill="none" xmlns="http://www.w3.org/2000/svg">
<g clip-path="url(#clip0_8_4825)">
<mask id="mask0_8_4825" style="mask-type:luminance" maskUnits="userSpaceOnUse" x="0" y="0" width="167" height="32">
<path d="M0 0H167V32H0V0Z" fill="white"/>
</mask>
<g mask="url(#mask0_8_4825)">
<path d="M77.3907 3.201C77.1327 5.035 78.3227 6.403 80.1757 6.403C81.0728 6.40267 81.9397 6.07846 82.6169 5.48999C83.2941 4.90152 83.7361 4.08835 83.8617 3.2C84.1197 1.367 82.9297 0 81.0767 0C80.1797 5.38876e-05 79.313 0.323908 78.6358 0.912012C77.9585 1.50012 77.5164 2.31293 77.3907 3.201ZM77.4377 7.903L75.8477 19.206L80.9297 19.011L82.4917 7.903H77.4377Z" fill="#131313"/>
<path fill-rule="evenodd" clip-rule="evenodd" d="M64.0878 24.8101C68.0978 24.8101 71.5058 22.6771 73.2098 19.4451L75.7998 19.5511L75.1198 24.3761H80.1758L80.8258 19.7561L83.5058 19.8661L81.8808 31.4131H86.9368L88.1788 22.5761C89.0168 24.0431 90.5948 24.8101 92.5828 24.8101C95.2718 24.8101 98.4278 23.4231 100.314 20.5531L102.25 20.6321C102.58 23.1261 104.906 24.8101 108.595 24.8101C112.874 24.8101 116.024 22.5431 116.503 19.1411C117.052 15.2401 113.467 14.6061 111.121 14.2731L110.917 14.2411C109.498 14.0251 108.416 13.8611 108.55 12.9051C108.644 12.2381 109.239 11.6051 110.485 11.6051C111.497 11.6051 112.11 12.0381 112.137 12.8051H117.057C117.373 9.8371 115.145 7.4701 111 7.4701C106.854 7.4701 103.864 9.8041 103.395 13.1391C102.837 17.1071 106.532 17.6741 108.776 18.0071L108.9 18.0271L109.073 18.0521C110.446 18.2591 111.483 18.4141 111.338 19.4421C111.24 20.1421 110.659 20.6751 109.109 20.6751C107.727 20.6751 107.148 20.2421 107.236 19.3751L71.4588 19.3741L73.2828 19.3041C73.7728 18.3361 74.1128 17.2721 74.2728 16.1401C74.9758 11.1381 71.7848 7.4701 66.5268 7.4701C66.4458 7.4701 66.3648 7.4701 66.2838 7.4721L66.2998 7.4621H50.3628C50.1468 7.46055 49.9308 7.46055 49.7148 7.4621H50.3628C54.4558 7.4891 62.2548 8.0081 61.2518 8.8521C59.9304 9.61011 58.8007 10.6614 57.9498 11.925C57.0989 13.1886 56.5494 14.6306 56.3438 16.1401C55.6398 21.1421 58.8308 24.8101 64.0878 24.8101ZM64.7448 20.1421C67.0368 20.1421 68.8168 18.5081 69.1498 16.1401C69.4828 13.7721 68.1618 12.1381 65.8698 12.1381C63.5798 12.1381 61.7998 13.7721 61.4658 16.1401C61.1328 18.5081 62.4528 20.1421 64.7448 20.1421Z" fill="#131313"/>
<path d="M96.7676 16.1397C96.6598 16.9734 96.3396 17.7654 95.8376 18.4397L101.429 18.2257C101.621 17.6377 101.769 17.0097 101.863 16.3397C102.608 11.0377 99.4026 7.46973 94.1126 7.46973C89.0226 7.46973 84.7846 10.7707 84.0056 16.3067L83.6406 18.9067L89.4976 18.6827C89.0976 18.0127 88.9436 17.1417 89.0846 16.1397C89.4176 13.7717 91.1976 12.1377 93.4896 12.1377C95.7806 12.1377 97.1006 13.7717 96.7676 16.1397ZM136.202 21.8447L137.149 15.1057C137.896 9.80373 141.324 7.46973 145.368 7.46973C147.727 7.46973 149.589 8.36973 150.592 10.1037C152.083 8.36973 154.164 7.46973 156.557 7.46973C160.601 7.46973 163.373 9.80373 162.628 15.1057L161.324 24.3757H156.268L157.572 15.1057C157.882 12.9057 156.911 12.1377 155.395 12.1377C153.912 12.1377 152.726 12.9047 152.416 15.1057L151.112 24.3757H146.057L147.361 15.1057C147.67 12.9057 146.7 12.1377 145.217 12.1377C143.701 12.1377 142.514 12.9047 142.205 15.1057L140.901 24.3757H137.872L137.873 24.3777H130.79C133.729 24.0807 135.987 23.2777 136.197 21.8377L136.202 21.8447Z" fill="#131313"/>
<path d="M125.417 24.8104C120.496 24.8104 117.588 22.0094 118.371 16.4404L119.256 10.1484C119.398 8.52336 118.117 8.32036 115.292 7.91336H119.57L119.572 7.90336H124.628L123.427 16.4404C123.061 19.0404 124.186 20.1414 126.074 20.1414C127.961 20.1414 129.396 19.0414 129.762 16.4404L130.963 7.90336H136.018L134.817 16.4404C134.039 21.9754 130.337 24.8104 125.417 24.8104ZM39.327 22.4274C38.9689 22.0355 38.6597 21.6017 38.406 21.1354L34.796 20.9394C32.929 23.3184 29.997 24.8104 26.644 24.8104C21.386 24.8104 18.195 21.1424 18.899 16.1404C19.602 11.1384 23.825 7.47036 29.083 7.47036C34.34 7.47036 37.531 11.1384 36.828 16.1404C36.6731 17.2532 36.3334 18.3324 35.823 19.3334L29.321 19.6654C30.587 19.0154 31.479 17.7464 31.705 16.1404C32.038 13.7724 30.718 12.1384 28.426 12.1384C26.134 12.1384 24.354 13.7724 24.021 16.1404C23.772 17.9124 24.449 19.2734 25.767 19.8464L20.062 20.1374H46.147V20.1404C48.379 20.0824 50.1 18.4654 50.427 16.1404C50.76 13.7724 49.44 12.1384 47.148 12.1384C44.857 12.1384 43.077 13.7724 42.744 16.1404C42.584 17.2804 42.806 18.2504 43.337 18.9504L37.706 19.2374C37.5 18.2874 37.466 17.2464 37.621 16.1404C38.325 11.1384 42.548 7.47036 47.805 7.47036C53.062 7.47036 56.253 11.1384 55.55 16.1404C54.87 20.9724 50.907 24.5594 45.9 24.7974C47.079 25.4614 48.792 25.9974 50.05 26.3914C50.47 26.5234 50.84 26.6394 51.123 26.7384C52.266 27.0204 52.997 28.0744 52.82 29.3324C52.612 30.8054 51.237 32.0004 49.748 32.0004H41.658C39.014 32.0004 37.078 30.1174 36.968 27.6324L26.99 26.6654H37.016V26.6634H45.642C43.67 25.9094 41.586 24.3994 40.245 23.2594C39.9142 23.0115 39.6072 22.7333 39.328 22.4284L39.327 22.4274ZM0 2.56836L4.13 3.22436L1.154 24.3764H17.027L17.731 19.3744H7.317L9.681 2.56836H0ZM167 6.30236C167 6.8129 166.797 7.30248 166.436 7.66339C166.075 8.02431 165.585 8.22699 165.074 8.22686C164.564 8.22673 164.074 8.02379 163.713 7.66269C163.353 7.30159 163.15 6.8119 163.15 6.30136C163.15 5.79082 163.353 5.30119 163.714 4.94018C164.075 4.57917 164.564 4.37636 165.075 4.37636C165.586 4.37636 166.075 4.57917 166.436 4.94018C166.797 5.30119 167 5.79182 167 6.30236Z" fill="#131313"/>
</g>
</g>
<defs>
<clipPath id="clip0_8_4825">
<rect width="167" height="32" fill="white"/>
</clipPath>
</defs>
</svg>
